<?xml version="1.0" encoding="utf-8"?>
<!-- Generator: Adobe Illustrator 27.0.0, SVG Export Plug-In . SVG Version: 6.00 Build 0)  -->
<svg version="1.1" id="Layer_1" xmlns="http://www.w3.org/2000/svg" xmlns:xlink="http://www.w3.org/1999/xlink" x="0px" y="0px"
	 viewBox="0 0 50 50" style="enable-background:new 0 0 50 50;" xml:space="preserve">
<style type="text/css">
	.st0{fill:#2EB9A1;}
</style>
<g>
	<g>
		<path class="st0" d="M24.7,38.5L24.7,38.5c12.5-5,17.4-16.7,11.9-21.7c-5.5-5-11.8,1.8-11.8,1.8h0c0,0-6.3-6.9-11.8-1.8
			C7.4,21.8,12.2,33.4,24.7,38.5z"/>
	</g>
</g>
<path class="st0" d="M24.1,5.1V13c0,0.6,1,0.6,1,0V5.1C25.1,4.5,24.1,4.5,24.1,5.1z"/>
<path class="st0" d="M31.7,6.9c-0.2-0.1-0.6-0.1-0.7,0.2c-0.7,1.3-1.2,2.7-1.5,4.1c-0.1,0.3,0.1,0.5,0.3,0.6
	c0.3,0.1,0.6-0.1,0.6-0.3c0.3-1.3,0.8-2.6,1.4-3.8C32,7.3,31.9,7,31.7,6.9z"/>
<path class="st0" d="M41.6,6.9c-2.3,1.2-4.4,2.7-6.5,4.3c-0.2,0.2-0.2,0.5,0,0.7c0.2,0.2,0.5,0.2,0.7,0c2-1.6,4-2.9,6.3-4.1
	C42.7,7.5,42.2,6.6,41.6,6.9z"/>
<path class="st0" d="M46,11.1c-2.1,0.5-4.2,1.2-6.2,2.2c-0.6,0.3-0.1,1.2,0.5,0.9c1.9-1,3.9-1.7,6-2.1C46.9,11.9,46.6,10.9,46,11.1z
	"/>
<path class="st0" d="M47.5,19.1c-1.7-0.1-3.3-0.1-5-0.1c-0.6,0-0.6,1,0,1c1.7,0,3.3,0,5,0.1C48.2,20.2,48.2,19.2,47.5,19.1z"/>
<path class="st0" d="M47.3,26.1h-4.6c-0.6,0-0.6,1,0,1h4.6C47.9,27.1,47.9,26.1,47.3,26.1z"/>
<path class="st0" d="M44.9,30.9c-0.8-0.5-1.7-1-2.7-1.3c-0.2-0.1-0.6,0.1-0.6,0.3c-0.1,0.3,0.1,0.5,0.3,0.6c0.1,0,0.2,0.1,0.3,0.1
	c0.1,0,0.1,0,0.2,0.1c0,0,0,0,0,0c0,0,0.1,0,0.1,0c0.2,0.1,0.4,0.2,0.6,0.3c0.4,0.2,0.8,0.4,1.2,0.7c0.2,0.1,0.6,0.1,0.7-0.2
	C45.2,31.4,45.1,31.1,44.9,30.9z"/>
<path class="st0" d="M44.1,36.4c-1.4-1.4-3.1-2.6-4.9-3.4c-0.2-0.1-0.5-0.1-0.7,0.2c-0.1,0.2-0.1,0.6,0.2,0.7
	c1.8,0.8,3.4,1.9,4.7,3.3C43.8,37.5,44.5,36.8,44.1,36.4z"/>
<path class="st0" d="M41.8,45.9c-1.9-3.1-3.9-6.2-5.9-9.2c-0.4-0.5-1.2,0-0.9,0.5c2,3,4,6.1,5.9,9.2C41.3,46.9,42.1,46.4,41.8,45.9z
	"/>
<path class="st0" d="M33.4,41.4c-0.1-0.1-0.2-0.2-0.3-0.3c-0.1-0.1-0.2-0.3-0.2-0.4c0-0.1-0.1-0.1-0.1-0.1c0,0-0.1-0.1-0.2-0.1
	c-0.1,0-0.3,0-0.4,0.1c-0.1,0.1-0.2,0.2-0.2,0.3c0,0,0,0.1,0,0.1c0,0.1,0,0.2,0.1,0.3c0.1,0.2,0.2,0.3,0.3,0.4
	c0.1,0.2,0.3,0.3,0.4,0.5c0,0,0.1,0.1,0.2,0.1c0.1,0,0.1,0,0.2,0c0.1,0,0.3-0.1,0.4-0.1c0.1-0.1,0.2-0.2,0.1-0.4
	C33.5,41.6,33.5,41.5,33.4,41.4z"/>
<path class="st0" d="M30.2,46.2c-0.7-1.5-1.3-3-1.8-4.6c-0.2-0.6-1.2-0.3-1,0.3c0.5,1.6,1.2,3.3,1.9,4.9c0.1,0.2,0.5,0.3,0.7,0.2
	C30.3,46.8,30.3,46.5,30.2,46.2z"/>
<path class="st0" d="M24.8,42.7c-0.3,0-0.5,0.2-0.5,0.5v2.6c0,0.3,0.2,0.5,0.5,0.5c0.3,0,0.5-0.2,0.5-0.5v-2.6
	C25.3,43,25.1,42.7,24.8,42.7z"/>
<path class="st0" d="M17.8,6.9c0.2-0.1,0.6-0.1,0.7,0.2c0.7,1.3,1.2,2.7,1.5,4.1c0.1,0.3-0.1,0.5-0.3,0.6c-0.3,0.1-0.6-0.1-0.6-0.3
	c-0.3-1.3-0.8-2.6-1.4-3.8C17.5,7.4,17.6,7,17.8,6.9z"/>
<path class="st0" d="M7.9,6.9c2.3,1.2,4.4,2.7,6.5,4.3c0.2,0.2,0.2,0.5,0,0.7c-0.2,0.2-0.5,0.2-0.7,0c-2-1.6-4-2.9-6.3-4.1
	C6.8,7.5,7.3,6.6,7.9,6.9z"/>
<path class="st0" d="M3.5,11.1c2.1,0.5,4.2,1.2,6.2,2.2c0.6,0.3,0.1,1.2-0.5,0.9c-1.9-1-3.9-1.7-6-2.1C2.6,11.9,2.9,10.9,3.5,11.1z"
	/>
<path class="st0" d="M2,19.1c1.7-0.1,3.3-0.1,5-0.1c0.6,0,0.6,1,0,1c-1.7,0-3.3,0-5,0.1C1.3,20.2,1.3,19.2,2,19.1z"/>
<path class="st0" d="M2.3,26.1h4.6c0.6,0,0.6,1,0,1H2.3C1.6,27.1,1.6,26.1,2.3,26.1z"/>
<path class="st0" d="M4.6,30.9c0.8-0.5,1.7-1,2.7-1.3c0.2-0.1,0.6,0.1,0.6,0.3c0.1,0.3-0.1,0.5-0.3,0.6c-0.1,0-0.2,0.1-0.3,0.1
	c-0.1,0-0.1,0-0.2,0.1c0,0,0,0,0,0c0,0-0.1,0-0.1,0c-0.2,0.1-0.4,0.2-0.6,0.3c-0.4,0.2-0.8,0.4-1.2,0.7c-0.2,0.1-0.6,0.1-0.7-0.2
	C4.3,31.4,4.4,31.1,4.6,30.9z"/>
<path class="st0" d="M5.4,36.4c1.4-1.4,3.1-2.6,4.9-3.4c0.2-0.1,0.5-0.1,0.7,0.2c0.1,0.2,0.1,0.6-0.2,0.7c-1.8,0.8-3.4,1.9-4.7,3.3
	C5.7,37.5,5,36.8,5.4,36.4z"/>
<path class="st0" d="M7.7,45.9c1.9-3.1,3.9-6.2,5.9-9.2c0.4-0.5,1.2,0,0.9,0.5c-2,3-4,6.1-5.9,9.2C8.2,46.9,7.4,46.4,7.7,45.9z"/>
<path class="st0" d="M16.2,41.4c0.1-0.1,0.2-0.2,0.3-0.3c0.1-0.1,0.2-0.3,0.2-0.4c0-0.1,0.1-0.1,0.1-0.1c0,0,0.1-0.1,0.2-0.1
	c0.1,0,0.3,0,0.4,0.1c0.1,0.1,0.2,0.2,0.2,0.3c0,0,0,0.1,0,0.1c0,0.1,0,0.2-0.1,0.3c-0.1,0.2-0.2,0.3-0.3,0.4
	c-0.1,0.2-0.3,0.3-0.4,0.5c0,0-0.1,0.1-0.2,0.1c-0.1,0-0.1,0-0.2,0c-0.1,0-0.3-0.1-0.4-0.1C16.1,42,16,41.9,16,41.7
	C16,41.6,16.1,41.5,16.2,41.4z"/>
<path class="st0" d="M19.3,46.2c0.7-1.5,1.3-3,1.8-4.6c0.2-0.6,1.2-0.3,1,0.3c-0.5,1.6-1.2,3.3-1.9,4.9c-0.1,0.2-0.5,0.3-0.7,0.2
	C19.2,46.8,19.2,46.5,19.3,46.2z"/>
</svg>
