<?xml version="1.0" encoding="utf-8"?>
<!-- Generator: Adobe Illustrator 27.0.0, SVG Export Plug-In . SVG Version: 6.00 Build 0)  -->
<svg version="1.1" id="Layer_1" xmlns="http://www.w3.org/2000/svg" xmlns:xlink="http://www.w3.org/1999/xlink" x="0px" y="0px"
	 viewBox="0 0 50 50" style="enable-background:new 0 0 50 50;" xml:space="preserve">
<style type="text/css">
	.st0{fill:#2EB9A1;}
</style>
<path class="st0" d="M30.1,48.4c-7.8,2.2-18.9-0.4-25.5-10c-6.3-9.2-5.4-21.9,2.2-30C14.7-0.1,27.1-2,36.9,3.9
	C47.1,10,50.5,21.3,48.1,30.4c-0.5-0.5-1.2-1-1.6-1.6c-0.2-0.3-0.2-0.9-0.2-1.3c0.6-4.8-0.3-9.2-2.6-13.4C39.5,6.3,30.4,1.8,21.7,3
	C12.6,4.3,5.1,11.1,3.2,20c-1.7,8,0.4,14.9,6.2,20.7c0.2,0.2,0.4,0.3,0.6,0.6c0.6-5.7,3.5-9.8,8.6-12.2c3.5-1.6,7.1-1.6,10.8-0.4
	c-0.4,0.5-0.8,0.8-1,1.2c-0.4,0.6-0.8,0.6-1.5,0.5c-5.7-1.3-11.9,2-13.8,7.5c-0.5,1.4-0.6,3-0.7,4.5c0,0.4,0.3,0.9,0.6,1.1
	c4.3,2.8,9.1,3.9,14.2,3.3c0.7-0.1,1.2,0.1,1.6,0.6C29.2,47.7,29.6,48,30.1,48.4z"/>
<path class="st0" d="M48.9,38.5c0,6-4.9,10.8-10.8,10.8c-6,0-10.9-4.8-10.9-10.8s4.7-10.8,10.7-10.8C43.9,27.6,48.9,32.5,48.9,38.5z
	 M46.6,38.5c0-4.7-3.9-8.5-8.7-8.5c-4.7,0-8.5,3.9-8.5,8.6s3.8,8.5,8.5,8.5C42.7,47,46.6,43.2,46.6,38.5z"/>
<path class="st0" d="M24.7,10c4.4,0,7.9,3.5,7.9,8c0,4.4-3.5,7.9-7.9,7.9s-8.1-3.6-8.1-7.9C16.6,13.6,20.2,10,24.7,10z M30.4,17.9
	c0-3.2-2.5-5.7-5.8-5.7c-3,0-5.6,2.6-5.6,5.6c0,3.2,2.5,5.7,5.7,5.7C27.9,23.6,30.4,21.1,30.4,17.9z"/>
<path class="st0" d="M32.2,37.4c1.5,0,3,0,4.5,0c0-1.6,0-3.1,0-4.7c0.9,0,1.6,0,2.5,0c0,1.5,0,3,0,4.7c1.6,0,3,0,4.6,0
	c0,0.8,0,1.5,0,2.4c-1.5,0-3,0-4.5,0c0,1.6,0,3.1,0,4.6c-0.8,0-1.6,0-2.5,0c0-1.5,0-3,0-4.6c-1.6,0-3.1,0-4.6,0
	C32.2,39,32.2,38.3,32.2,37.4z"/>
</svg>
