<?xml version="1.0" encoding="utf-8"?>
<!-- Generator: Adobe Illustrator 27.0.0, SVG Export Plug-In . SVG Version: 6.00 Build 0)  -->
<svg version="1.1" id="Layer_1" xmlns="http://www.w3.org/2000/svg" xmlns:xlink="http://www.w3.org/1999/xlink" x="0px" y="0px"
	 viewBox="0 0 50 50" style="enable-background:new 0 0 50 50;" xml:space="preserve">
<style type="text/css">
	.st0{fill:#2EB9A1;}
</style>
<path class="st0" d="M47.2,25.8c0,13.3-12.1,23.7-25.6,21.3C11.4,45.2,3.7,36.2,3.7,25.8c0-12,9.4-21.7,21.5-21.7
	C37.2,3.9,47.2,13.8,47.2,25.8z M42.6,25.8c0-9.1-7.3-16.6-16.5-17C17,8.3,9,15.3,8.2,24.4c-0.9,10.1,7,18.6,17,18.6
	C34.8,42.8,42.6,35.2,42.6,25.8z"/>
<path class="st0" d="M14.9,23.6h6.6c0.7,0,1.2-0.5,1.2-1.2v-7c0-0.7,0.5-1.2,1.2-1.2h2.6c0.7,0,1.2,0.5,1.2,1.2v7
	c0,0.7,0.5,1.2,1.2,1.2h6.8c0.7,0,1.2,0.5,1.2,1.2v2.4c0,0.7-0.5,1.2-1.2,1.2h-6.6c-0.7,0-1.2,0.5-1.2,1.2v6.8
	c0,0.7-0.5,1.2-1.2,1.2h-2.6c-0.7,0-1.2-0.5-1.2-1.2v-6.8c0-0.7-0.5-1.2-1.2-1.2h-6.8c-0.7,0-1.2-0.5-1.2-1.2v-2.4
	C13.7,24.1,14.3,23.6,14.9,23.6z"/>
</svg>
