<?xml version="1.0" encoding="utf-8"?>
<!-- Generator: Adobe Illustrator 27.0.0, SVG Export Plug-In . SVG Version: 6.00 Build 0)  -->
<svg version="1.1" id="Layer_1" xmlns="http://www.w3.org/2000/svg" xmlns:xlink="http://www.w3.org/1999/xlink" x="0px" y="0px"
	 viewBox="0 0 50 50" style="enable-background:new 0 0 50 50;" xml:space="preserve">
<style type="text/css">
	.st0{fill:#CE1313;}
</style>
<path class="st0" d="M34.2,27.6c-2,2.1-3.4,3.5-5.4,5.5c-7-8.5-20.2-13-22.4-27.6C21.2,7.3,25.5,20.8,34.2,27.6z"/>
<path class="st0" d="M32.3,22.8c-1.8-2-3.6-4.1-5.5-6.2c3.7-6.5,9-10.1,16.6-10.9C43.1,13.6,38.8,18.7,32.3,22.8z"/>
<path class="st0" d="M19.6,42.6C15.2,38.2,11,34,6.8,29.9c2-1.7,5.3-1.1,9.3,1.9C18.9,33.9,21,40,19.6,42.6z"/>
<path class="st0" d="M43.9,30.8c-3.6,3.5-7.2,7-10.9,10.4c-0.7,0.6-1.8,0.8-2.8,1.1c-0.1-1.1-0.5-2.3-0.2-3.4c1.5-5.2,5-8.5,10.2-10
	c1-0.3,2.3,0.1,3.4,0.2C43.7,29.6,43.8,30.2,43.9,30.8z"/>
<path class="st0" d="M9.8,36.6c1,1,1.9,2,2.9,3c-1.9,2.2-3.3,4.3-5.2,5.9c-0.8,0.7-2.5,0.2-3.8,0.2c0-1.4-0.4-3.3,0.3-4.1
	C5.3,39.8,7.4,38.6,9.8,36.6z"/>
<path class="st0" d="M37.5,39.5c1.2-1,2.3-1.8,3.3-2.7c1.9,1.6,3.9,2.9,5.4,4.7c0.8,0.9,0.5,2.7,0.7,4.1c-1.5-0.2-3.4,0.2-4.4-0.6
	C40.6,43.7,39.4,41.7,37.5,39.5z"/>
<path class="st0" d="M23.7,31.1c-1.2,1.2-2,2-2.7,2.7c-1.6-2.1-5.1-5.2-5.5-4.9c0.7-0.9,1.5-1.8,2.4-2.9
	C19.8,27.6,21.4,29.1,23.7,31.1z"/>
</svg>
