<?xml version="1.0" encoding="utf-8"?>
<!-- Generator: Adobe Illustrator 27.0.0, SVG Export Plug-In . SVG Version: 6.00 Build 0)  -->
<svg version="1.1" id="Layer_1" xmlns="http://www.w3.org/2000/svg" xmlns:xlink="http://www.w3.org/1999/xlink" x="0px" y="0px"
	 viewBox="0 0 50 50" style="enable-background:new 0 0 50 50;" xml:space="preserve">
<style type="text/css">
	.st0{fill:#2EB9A1;}
</style>
<g>
	<path class="st0" d="M32.6,41.3c-0.4-0.4-0.8-0.7-1.3-1c-0.1-0.1-0.3-0.2-0.4-0.2v-0.5c0-0.7,0-1.5,0-2.2c0-2.1-0.8-4-2.4-5.4
		c-2-1.7-4-3.5-5.9-5.2l-0.8-0.7c-0.2-0.1-0.3-0.3-0.3-0.6c0-0.2,0.2-0.5,0.3-0.6c2.3-2,4.5-3.9,6.8-5.9c1.5-1.4,2.3-3.1,2.3-5.2v-3
		c1.8-0.6,2.3-1.5,2.3-3.5V6.1c0-2.3-1.2-3.5-3.5-3.5H5c-0.3,0-0.7,0-1,0.1C2.6,2.9,1.6,4.1,1.5,5.5c0,0.4,0,0.8,0,1.2v0.5
		c0,2.1,0.5,3,2.3,3.6v0.5c0,0.7,0,1.5,0,2.2c-0.1,2.3,0.8,4.1,2.5,5.6c1.7,1.5,3.4,3,5.1,4.5L13,25c0.1,0.1,0.2,0.3,0.2,0.5
		c0,0.2-0.1,0.4-0.2,0.5c-0.6,0.5-1.2,1.1-1.8,1.6c-1.5,1.3-3,2.6-4.5,3.9c-2.1,1.7-3.1,3.8-2.9,6.4c0,0.6,0,1.3,0,1.9
		c0,0.1,0,0.3,0,0.4c-1.7,0.6-2.3,1.5-2.3,3.4V45c0,2.2,1.2,3.4,3.4,3.4l7.4,0l6.5,0c3.7,0,7.4,0,11.1,0c0,0,0,0,0,0
		c1.2,0,2.2-0.4,2.8-1.3C33.4,46,33.5,42.4,32.6,41.3z M5.2,44.7v-1h24.4v1H5.2z M5.2,7.3v-1h24.4v1H5.2z M8.2,15.5
		c-0.4,0-0.4-0.1-0.5-0.3L7.7,15c-0.1-0.2-0.1-0.3-0.1-0.4c0-1,0-2,0-3.1V11h19.7v0.3c0,1,0,1.9,0,2.8c0,0.2,0,0.4-0.1,0.6
		c-0.2,0.8-0.2,0.8-1,0.8h-4.2C17.4,15.5,12.8,15.5,8.2,15.5z M7.5,36.5c0-0.6,0.4-1.2,1.1-1.8l6.8-6c1-0.8,1.5-2,1.5-3.2
		c0-1.2-0.5-2.4-1.5-3.2l-3.6-3.2h11c-1.3,1.1-2.5,2.2-3.8,3.3c-0.8,0.7-1.3,1.8-1.3,3.1c0,1.2,0.5,2.3,1.3,3l1.9,1.6
		c1.6,1.4,3.2,2.8,4.8,4.2c1.1,0.9,1.6,2,1.5,3.3c0,0.7,0,1.4,0,2.1v0.3H7.5c0-0.2,0-0.4,0-0.7C7.5,38.4,7.5,37.4,7.5,36.5z"/>
</g>
<g>
	<path class="st0" d="M49.2,25.4c0,1.2-1,2.2-2.2,2.2h-6.2V34c0,1.2-1,2.2-2.2,2.2c-1.2,0-2.2-1-2.2-2.2v-6.4h-6.6
		c-1.2,0-2.2-1-2.2-2.2c0-1.2,1-2.2,2.2-2.2h6.5v-6.3c0-1.2,1-2.2,2.2-2.2s2.2,1,2.2,2.2v6.3h6.2C48.2,23.1,49.2,24.1,49.2,25.4z"/>
</g>
</svg>
