<?xml version="1.0" encoding="utf-8"?>
<!-- Generator: Adobe Illustrator 27.0.0, SVG Export Plug-In . SVG Version: 6.00 Build 0)  -->
<svg version="1.1" id="Layer_1" xmlns="http://www.w3.org/2000/svg" xmlns:xlink="http://www.w3.org/1999/xlink" x="0px" y="0px"
	 viewBox="0 0 50 50" style="enable-background:new 0 0 50 50;" xml:space="preserve">
<style type="text/css">
	.st0{fill:#2EB9A1;}
</style>
<g>
	<g>
		<path class="st0" d="M21.6,41.4c-1-1.2-2.4-2.8-1.9-4.6c0.5-1.6,2.2-2.8,3.5-3.8c1.5-1.2,3.1-2.5,4.5-3.8
			c-1.9-2.4-4.3-4.4-7.3-5.3c-0.8-0.2-1.1-1-1-1.7c0.4-2.2,1.7-4.2,2.9-6.1c0.7-1.2,1.4-2.4,2-3.6C21.5,10,13.2,3.6,5.7,10.4
			c-9,8.2-1.3,27,18.8,35.5C23.8,44.2,22.7,42.8,21.6,41.4z"/>
		<path class="st0" d="M44.6,10.4C38.5,4.8,31.7,8.2,28,11c-0.8,2-1.8,4-2.9,5.9c-0.9,1.6-2,3.1-2.6,4.8c3.4,1.3,6.2,3.9,8.3,7
			c0.4,0.5,0.2,1.3-0.2,1.7c-1.6,1.6-3.3,3-5.1,4.4c-0.6,0.5-1.2,0.9-1.8,1.4c-0.4,0.3-1.1,0.8-1.3,1.3c0,0,0,0.2,0.1,0.3
			c0.2,0.3,0.4,0.7,0.7,1c0.5,0.6,1,1.2,1.5,1.9c1.1,1.4,2,2.9,2.6,4.5C46.3,36.6,53.4,18.4,44.6,10.4z"/>
	</g>
</g>
</svg>
