<?xml version="1.0" encoding="utf-8"?>
<!-- Generator: Adobe Illustrator 27.0.0, SVG Export Plug-In . SVG Version: 6.00 Build 0)  -->
<svg version="1.1" id="Layer_1" xmlns="http://www.w3.org/2000/svg" xmlns:xlink="http://www.w3.org/1999/xlink" x="0px" y="0px"
	 viewBox="0 0 50 50" style="enable-background:new 0 0 50 50;" xml:space="preserve">
<style type="text/css">
	.st0{fill:#2EB9A1;}
</style>
<path class="st0" d="M10.7,15.2c9.7,0,19.2,0,28.9,0c-0.4,5-0.9,10-1.3,14.9c-1.7,0.3-3.4,0.5-5.2,0.8c0-2,0-4.1,0-6.2
	c0-0.9,0-1.9,0-2.8c0-0.8-0.2-1.5-1.2-1.6c-1.1,0-1.3,0.7-1.3,1.6s0,1.9,0,2.8c0,2.5,0,4.9,0,7.4c0,0.5-0.2,1.1-0.5,1.5
	c-3.2,4.1-3.2,8.6,0,12.6c0.1,0.1,0.1,0.2,0.3,0.5c-1.7,0-3.2,0-4.8,0c-2.8,0-5.7,0-8.5,0c-2.7,0-4.1-1.2-4.3-3.9
	c-0.7-8-1.3-16.1-1.9-24.1C10.9,17.6,10.8,16.4,10.7,15.2z M17.2,30.5c0,2.9,0,5.8,0,8.7c0,0.9,0,1.9,1.3,1.9c1.1,0,1.2-0.9,1.2-1.8
	c0-5.7,0-11.4,0-17.2c0-0.9-0.1-1.8-1.2-1.8c-1.3,0-1.3,1-1.3,1.9C17.2,24.9,17.2,27.7,17.2,30.5z M26.4,30.7L26.4,30.7
	c0-2.9,0-5.8,0-8.7c0-0.9-0.1-1.8-1.2-1.8C24,20.2,24,21.1,24,22c0,5.7,0,11.5,0,17.2c0,0.9,0,1.8,1.2,1.8s1.3-0.9,1.3-1.8
	C26.4,36.4,26.4,33.6,26.4,30.7z"/>
<path class="st0" d="M19.1,8.2c0-0.9,0-1.5,0-2.2c0-1.7,1-2.9,2.7-2.9C24,3,26.2,3,28.5,3c1.6,0,2.7,1.1,2.8,2.7
	c0.1,0.7,0,1.5,0,2.4c0.6,0,1,0,1.4,0c2.9,0,5.8,0,8.7,0c1.2,0,1.9,0.5,1.7,1.8c0,0.2,0,0.4,0,0.6c0,2.1-0.1,2.2-2.2,2.2
	c-10.5,0-21.1,0-31.6,0c-0.7,0-1.9-0.4-2-0.7c-0.2-1-0.1-2.2,0.1-3.2c0-0.3,0.9-0.5,1.5-0.5C12.2,8.2,15.5,8.2,19.1,8.2z M28.9,5.7
	c-2.5,0-4.9,0-7.4,0c0,0.9,0,1.7,0,2.4c2.5,0,4.9,0,7.4,0C28.9,7.3,28.9,6.5,28.9,5.7z"/>
<path class="st0" d="M44.6,39.9c0,3.9-3.3,7.2-7.2,7.2c-4,0-7.2-3.2-7.2-7.2c0-4.1,3.2-7.3,7.2-7.3C41.5,32.6,44.6,35.8,44.6,39.9z
	 M41.5,42.4c-0.8-0.9-1.6-1.8-2.3-2.6c0.8-1,1.6-1.8,2.4-2.7c-0.5-0.6-0.9-1-1.4-1.6c-1,1-1.9,1.7-2.8,2.6c-0.7-0.6-1.3-1.2-2-1.8
	c-0.5-0.4-0.9-0.9-1.5-0.2c-0.5,0.6-0.8,1.1-0.1,1.8c0.6,0.6,1.2,1.3,1.8,1.9c-0.5,0.6-0.9,1.1-1.4,1.5c-0.6,0.7-1.3,1.2-0.3,2.2
	c1,0.9,1.4,0,1.9-0.5s1-0.9,1.6-1.5c0.5,0.5,0.9,1,1.3,1.4C40.1,44.2,40.3,44.2,41.5,42.4z"/>
</svg>
