<?xml version="1.0" encoding="UTF-8"?>
<svg id="Layer_1" xmlns="http://www.w3.org/2000/svg" version="1.1" viewBox="0 0 60 60">
  <!-- Generator: Adobe Illustrator 29.0.1, SVG Export Plug-In . SVG Version: 2.1.0 Build 192)  -->
  <defs>
    <style>
      .st0 {
        fill: #2eb9a1;
      }
    </style>
  </defs>
  <path class="st0" d="M30.99.86l20.95,12.07c-.09.13-.39.06-.54.05-3.9-.34-8.06-1.37-11.92-1.59-1.26-.07-2.25.23-1.35,1.59l17.28,2.37-8.93,22.52-14.6-25.33-.03-.28c.83.09,3.04.75,3.6.07.45-.56.07-1.34-.59-1.52-1.02-.28-2.5-.21-3.57-.4-.14-.03-.23-.06-.31-.18V.86Z"/>
  <path class="st0" d="M44.75,41.08l-14.7,18.06-5.53-6.59c-.68-.36-1.57.15-1.44.93s2.33,2.84,2.83,3.62l-.18.06-20.4-11.82,7.6-4,7.83,9.51c.86.84,2.02.2,1.61-.99l-7.12-8.79h29.51Z"/>
  <polygon class="st0" points="45.13 39.22 14.87 39.22 29.94 13.11 45.13 39.22"/>
  <polygon class="st0" points="13.51 37.86 4.58 15.34 28.14 12.24 13.51 37.86"/>
  <polygon class="st0" points="29.01 10.2 8.05 12.99 29.01 .86 29.01 10.2"/>
  <polygon class="st0" points="4.21 43.68 4.21 19.67 12.01 39.64 4.21 43.68"/>
  <polygon class="st0" points="55.79 43.68 47.99 39.64 55.79 19.67 55.79 43.68"/>
  <polygon class="st0" points="33.97 57.29 46.99 41.38 54.67 45.35 33.97 57.29"/>
</svg>