<?xml version="1.0" encoding="utf-8"?>
<!-- Generator: Adobe Illustrator 27.0.0, SVG Export Plug-In . SVG Version: 6.00 Build 0)  -->
<svg version="1.1" id="Layer_1" xmlns="http://www.w3.org/2000/svg" xmlns:xlink="http://www.w3.org/1999/xlink" x="0px" y="0px"
	 viewBox="0 0 50 50" style="enable-background:new 0 0 50 50;" xml:space="preserve">
<style type="text/css">
	.st0{fill:#2EB9A1;}
</style>
<path class="st0" d="M29.6,10.6c3.3,3.2,6.6,6.4,10,9.6C39,20.9,38.5,21.4,38,22c-6.7,6.7-13.4,13.5-20.1,20.2c-0.4,0.4-1,0.8-1.6,1
	c-3.3,1.1-6.6,2.1-9.9,3.1c-1.7,0.5-2.5-0.2-2.1-1.8C5,41,5.9,37.5,6.8,34c0.2-0.5,0.4-1,0.8-1.4c7.2-7.3,14.4-14.5,21.6-21.7
	C29.3,10.8,29.4,10.8,29.6,10.6z M33.8,18.7C27.4,24.9,21,31.1,14.6,37.2c0.8,0.8,1.4,1.4,2,2.1c-0.1-0.1-0.2-0.3-0.3-0.4
	c6.4-6.2,12.8-12.4,19.2-18.6C34.8,19.6,34.2,19,33.8,18.7z M29.9,14.8c-6.5,6.3-12.8,12.5-19,18.5c0.6,0.7,1.1,1.4,1.5,1.8
	c6.4-6.2,12.8-12.4,19.1-18.6C30.8,15.8,30.2,15.2,29.9,14.8z M13.6,41.1c-1.4-1.6-2.9-3.3-4.3-5c-0.1,1.6-1.8,2.8-0.6,4.5
	C10.3,43.1,12.2,41.4,13.6,41.1z"/>
<path class="st0" d="M40.8,18.9c-3.2-3.5-6.2-6.8-9.1-10c1.1-1.3,2.4-2.9,3.9-4.3c1-0.9,2.9-0.7,4,0.4c1.8,1.7,3.6,3.4,5.3,5.2
	c1.2,1.3,1.3,3.2,0.2,4.5C43.8,16,42.5,17.3,40.8,18.9z M35.5,8.6c1.9,2.1,3.7,4.1,5.5,6.1c0.5-0.4,0.8-0.8,1.2-1.1
	c1-0.8,1-1.5,0-2.3s-1.9-1.8-2.8-2.7C37.2,6.5,37.2,6.5,35.5,8.6z"/>
</svg>
