<?xml version="1.0" encoding="utf-8"?>
<!-- Generator: Adobe Illustrator 27.0.0, SVG Export Plug-In . SVG Version: 6.00 Build 0)  -->
<svg version="1.1" id="Layer_1" xmlns="http://www.w3.org/2000/svg" xmlns:xlink="http://www.w3.org/1999/xlink" x="0px" y="0px"
	 viewBox="0 0 50 50" style="enable-background:new 0 0 50 50;" xml:space="preserve">
<style type="text/css">
	.st0{fill:#CE1313;}
</style>
<path class="st0" d="M14.8,31.6c-2.3,2.7-3.9,4.8-5.8,6.7c-2.4,2.4-5.2,2.5-7.1,0.6c-2-2-1.8-4.5,0.7-7c1.9-1.9,4-3.5,6.6-5.8
	c-2.7-2.5-4.9-4.3-6.9-6.3c-2.3-2.3-2.4-4.9-0.4-6.7c2.2-2,4.5-1.7,6.5,0.3c2,2.2,3.8,4.6,6,7.4c2.9-3.1,4.9-5.2,6.8-7.3
	c2-2.1,4.2-2.4,6.5-0.4c2,1.7,1.9,4.2,0,6.5c-2,2.2-4,4.3-7,7.4c2.1,1.7,4.3,3.1,6.1,4.9c2.6,2.5,2.9,5,1.1,7
	c-1.9,2.1-4.6,1.9-7.3-0.6c-1-0.9-2-1.8-2.9-2.8C17,34.5,16.3,33.6,14.8,31.6z"/>
</svg>
