<?xml version="1.0" encoding="utf-8"?>
<!-- Generator: Adobe Illustrator 27.0.0, SVG Export Plug-In . SVG Version: 6.00 Build 0)  -->
<svg version="1.1" id="Layer_1" xmlns="http://www.w3.org/2000/svg" xmlns:xlink="http://www.w3.org/1999/xlink" x="0px" y="0px"
	 viewBox="0 0 50 50" style="enable-background:new 0 0 50 50;" xml:space="preserve">
<style type="text/css">
	.st0{fill:#2EB9A1;}
</style>
<g>
	<path class="st0" d="M37.2,47.9H12.8c-3.4,0-6.2-2.8-6.2-6.2V8.3c0-3.4,2.8-6.2,6.2-6.2h24.3c3.4,0,6.2,2.8,6.2,6.2v33.3
		C43.4,45.1,40.6,47.9,37.2,47.9z M12.8,6.1c-1.2,0-2.2,1-2.2,2.2v33.3c0,1.2,1,2.2,2.2,2.2h24.3c1.2,0,2.2-1,2.2-2.2V8.3
		c0-1.2-1-2.2-2.2-2.2H12.8z"/>
</g>
<g>
	<path class="st0" d="M33.5,15.9H16.2c-1.1,0-2-0.9-2-2s0.9-2,2-2h17.3c1.1,0,2,0.9,2,2S34.6,15.9,33.5,15.9z"/>
</g>
<g>
	<path class="st0" d="M33.7,38H16.4c-1.1,0-2-0.9-2-2s0.9-2,2-2h17.3c1.1,0,2,0.9,2,2S34.8,38,33.7,38z"/>
</g>
<g>
	<path class="st0" d="M33.6,27H16.4c-1.1,0-2-0.9-2-2s0.9-2,2-2h17.2c1.1,0,2,0.9,2,2S34.7,27,33.6,27z"/>
</g>
</svg>
