<?xml version="1.0" encoding="utf-8"?>
<!-- Generator: Adobe Illustrator 27.0.0, SVG Export Plug-In . SVG Version: 6.00 Build 0)  -->
<svg version="1.1" id="Layer_1" xmlns="http://www.w3.org/2000/svg" xmlns:xlink="http://www.w3.org/1999/xlink" x="0px" y="0px"
	 viewBox="0 0 50 50" style="enable-background:new 0 0 50 50;" xml:space="preserve">
<style type="text/css">
	.st0{fill:#2EB9A1;}
</style>
<path class="st0" d="M48.2,22.3c0,0,0.1,0,0.2,0c1,0.2,1.3,0.8,0.9,1.7c-0.3,0.8-0.8,1.4-1.4,1.9c-0.7,0.6-1.4,1.1-2.1,1.7
	c0.3,0,0.6,0,0.8,0c0.6,0,1.2,0,1.5,0.7c0.3,0.6-0.2,1.1-0.6,1.5c-0.9,0.8-2,1.3-3.2,1.7c-0.1,0-0.3,0.1-0.5,0.1
	c0,0.1,0.1,0.1,0.1,0.1c0.7,0.5,0.8,1,0.2,1.6c-0.8,0.8-1.8,1.1-2.9,1.3c-0.6,0.1-1.1,0.2-1.7,0.2c0,0,0,0,0,0
	c0.5,0.6,0.4,1-0.4,1.3c-0.9,0.3-1.9,0.3-2.8,0c-1.5-0.6-2.9-1.2-4.4-1.8c-0.6-0.3-1.1-0.3-1.6,0.1c-0.4,0.2-0.7,0.5-1.1,0.7
	c-0.7,0.4-1.2,0.3-1.7-0.3c-0.8-1-1-2.2-0.9-3.4c0.2-2.2,1.2-3.9,2.8-5.3c2.4-2.1,5.2-3.7,8.1-4.9c1.7-0.7,3.4-1.5,5-2.4
	c2.4-1.5,4.2-3.6,5.9-5.9c0.1-0.1,0.1-0.2,0.2-0.3c0.2-0.2,0.3-0.2,0.4,0c0.1,0.3,0.2,0.6,0.3,0.9c0.4,2.3,0.4,4.5-0.2,6.7
	C48.8,21,48.4,21.6,48.2,22.3z"/>
<path class="st0" d="M1.8,22.3c-1.6-2.8-1.6-5.9-1.1-8.9c0-0.2,0.1-0.4,0.2-0.6c0.2-0.4,0.3-0.4,0.6-0.1c1,1.2,1.9,2.4,2.9,3.5
	c1.7,1.8,3.8,3.1,6,4.1c2.2,1,4.4,2,6.6,3.1c1.6,0.8,3,2,4.3,3.3c1.5,1.5,2.3,3.3,2.2,5.4c0,1-0.3,1.9-0.9,2.7
	c-0.6,0.7-1.1,0.8-1.8,0.3c-0.3-0.2-0.7-0.5-1-0.7c-0.5-0.3-1-0.3-1.6-0.1c-1.6,0.8-3.2,1.6-5,2c-0.6,0.1-1.3,0.1-2-0.1
	c-1-0.2-1.1-0.6-0.6-1.3c-0.9-0.2-1.9-0.4-2.8-0.7c-0.5-0.1-1-0.4-1.4-0.7c-1-0.7-1-1.3-0.1-2C5.6,31.4,5,31.3,4.4,31
	c-0.6-0.3-1.1-0.6-1.6-1c-0.3-0.2-0.5-0.5-0.7-0.8c-0.3-0.6-0.1-1.1,0.5-1.3c0.3-0.1,0.6-0.1,0.9-0.2c0.3,0,0.6,0,1,0
	c-0.2-0.1-0.3-0.2-0.4-0.3c-0.9-0.6-1.8-1.3-2.5-2.2c-0.3-0.4-0.5-0.8-0.7-1.2c-0.3-0.9,0-1.4,0.9-1.6C1.7,22.3,1.8,22.3,1.8,22.3z"
	/>
</svg>
