<?xml version="1.0" encoding="utf-8"?>
<!-- Generator: Adobe Illustrator 27.0.0, SVG Export Plug-In . SVG Version: 6.00 Build 0)  -->
<svg version="1.1" id="Layer_1" xmlns="http://www.w3.org/2000/svg" xmlns:xlink="http://www.w3.org/1999/xlink" x="0px" y="0px"
	 viewBox="0 0 50 50" style="enable-background:new 0 0 50 50;" xml:space="preserve">
<style type="text/css">
	.st0{fill:#2EB9A1;}
</style>
<g>
	<g>
		<g>
			<path class="st0" d="M39.4,41.7c0,1.2-1,2.2-2.2,2.2H12.8c-1.2,0-2.2-1-2.2-2.2V8.3c0-1.2,1-2.2,2.2-2.2h24.3
				c0.3,0,0.6,0,0.8,0.2l2.8-3c-1-0.7-2.2-1.1-3.6-1.1H12.8c-3.4,0-6.2,2.8-6.2,6.2v33.3c0,3.4,2.8,6.2,6.2,6.2h24.3
				c3.4,0,6.2-2.8,6.2-6.2v-28l-4,4.4V41.7z M42.2,4.7l-2.9,3.1c0,0.2,0.1,0.4,0.1,0.6v6.8l4-4.4V8.3C43.4,7,42.9,5.7,42.2,4.7z"/>
		</g>
	</g>
	<g>
		<g>
			<path class="st0" d="M24.6,11.9l0.5,4h-8.9c-1.1,0-2-0.9-2-2c0-1.1,0.9-2,2-2H24.6z"/>
			<path class="st0" d="M35.5,13.9c0,1.1-0.9,2-2,2h-6.4l-0.5-4h5l0.4,3.7l2.8-3.1C35.3,12.9,35.5,13.4,35.5,13.9z"/>
		</g>
	</g>
	<g>
		<path class="st0" d="M33.7,38H16.4c-1.1,0-2-0.9-2-2s0.9-2,2-2h17.3c1.1,0,2,0.9,2,2S34.8,38,33.7,38z"/>
	</g>
	<g>
		<g>
			<path class="st0" d="M28.5,23.3c-0.1-0.1-0.2-0.2-0.2-0.3h3.9l0,0.1l0,0c-0.1,0.1-0.3,0.2-0.4,0.4c-0.1,0-0.1,0.1-0.2,0.1
				c-0.4,0.2-0.8,0.3-1.2,0.3C29.6,23.9,29,23.7,28.5,23.3z"/>
			<path class="st0" d="M35.6,25c0,1.1-0.9,2-2,2H16.4c-1.1,0-2-0.9-2-2s0.9-2,2-2H26c0,0.1,0,0.1,0.1,0.2c0.1,0.3,0.3,0.6,0.5,0.9
				c0.1,0.1,0.2,0.2,0.3,0.3c0.1,0.1,0.2,0.2,0.4,0.4c0,0,0,0,0,0c0.2,0.2,0.4,0.3,0.6,0.5c0,0,0,0,0,0c0.2,0.1,0.4,0.2,0.6,0.3
				c0.3,0.1,0.6,0.2,0.9,0.3c0.3,0,0.5,0.1,0.8,0.1c0.2,0,0.3,0,0.5,0c0.2,0,0.3,0,0.5-0.1c0,0,0,0,0,0c0.3-0.1,0.6-0.2,0.9-0.3
				c0.1-0.1,0.3-0.1,0.4-0.2c0.1-0.1,0.2-0.1,0.3-0.2c0.1-0.1,0.1-0.1,0.2-0.2c0.2-0.2,0.4-0.3,0.6-0.5l0,0l1-1.1
				C35.2,23.6,35.6,24.3,35.6,25z"/>
		</g>
	</g>
</g>
<g>
	<path class="st0" d="M48.6,5l-5.3,5.8l-4,4.4L32.2,23l0,0.1l0,0c-0.1,0.1-0.3,0.2-0.4,0.4c-0.1,0-0.1,0.1-0.2,0.1
		c-0.4,0.2-0.8,0.3-1.2,0.3c-0.6,0-1.2-0.2-1.7-0.6c-0.1-0.1-0.2-0.2-0.2-0.3c0,0,0,0,0,0c-0.1-0.1-0.2-0.2-0.2-0.4
		c0-0.1-0.1-0.1-0.1-0.2c0-0.1-0.1-0.1-0.1-0.2c-0.1-0.2-0.1-0.3-0.1-0.5l-0.6-5.8l-0.5-4l-0.1-1.1c-0.2-1.4,0.8-2.6,2.2-2.8
		c1.4-0.2,2.6,0.8,2.8,2.2l0.2,1.6l0.4,3.7l2.8-3.1l4.4-4.8l2.9-3.1L45,1.6c0.9-1,2.5-1.1,3.5-0.2C49.5,2.3,49.6,3.9,48.6,5z"/>
</g>
<g>
	<path class="st0" d="M29.7,6.1h-1.3c0,0,0.1,0,0.1,0C28.9,6.1,29.3,6.1,29.7,6.1z"/>
	<path class="st0" d="M48.6,5l-5.3,5.8l-4,4.4L32.2,23l0,0.1l0,0c-0.1,0.1-0.3,0.2-0.4,0.4c-0.1,0-0.1,0.1-0.2,0.1
		c-0.4,0.2-0.8,0.3-1.2,0.3c-0.6,0-1.2-0.2-1.7-0.6c-0.1-0.1-0.2-0.2-0.2-0.3c0,0,0,0,0,0c-0.1-0.1-0.2-0.2-0.2-0.4
		c0-0.1-0.1-0.1-0.1-0.2c0-0.1-0.1-0.1-0.1-0.2c-0.1-0.2-0.1-0.3-0.1-0.5l-0.6-5.8l-0.5-4l-0.1-1.1c-0.2-1.4,0.8-2.6,2.2-2.8
		c1.4-0.2,2.6,0.8,2.8,2.2l0.2,1.6l0.4,3.7l2.8-3.1l4.4-4.8l2.9-3.1L45,1.6c0.9-1,2.5-1.1,3.5-0.2C49.5,2.3,49.6,3.9,48.6,5z"/>
	<path class="st0" d="M30.7,25.9c-0.2,0-0.3,0-0.5,0c-0.3,0-0.5,0-0.8-0.1c0.3,0,0.5,0.1,0.8,0.1C30.4,25.9,30.5,25.9,30.7,25.9z"/>
	<path class="st0" d="M31.1,25.8c-0.1,0-0.3,0-0.4,0.1h0C30.8,25.9,31,25.8,31.1,25.8z"/>
	<path class="st0" d="M32,25.5c-0.3,0.1-0.6,0.2-0.9,0.3C31.5,25.8,31.7,25.7,32,25.5z"/>
</g>
</svg>
