<?xml version="1.0" encoding="utf-8"?>
<!-- Generator: Adobe Illustrator 27.0.0, SVG Export Plug-In . SVG Version: 6.00 Build 0)  -->
<svg version="1.1" id="Layer_1" xmlns="http://www.w3.org/2000/svg" xmlns:xlink="http://www.w3.org/1999/xlink" x="0px" y="0px"
	 viewBox="0 0 50 50" style="enable-background:new 0 0 50 50;" xml:space="preserve">
<style type="text/css">
	.st0{fill:#C4B314;}
</style>
<path class="st0" d="M43.4,5.8c-0.6-0.4-1.3-0.6-2-0.5c-5.1,1.1-10.4,0-14.6-3c-0.8-0.6-1.9-0.6-2.7,0c-4.3,3-9.5,4-14.6,3
	c-0.7-0.2-1.4,0-2,0.5C7,6.3,6.7,7,6.7,7.7v17.5c0,6.8,3.3,13.3,8.9,17.2l8.6,6.1c0.8,0.6,1.9,0.6,2.7,0l8.6-6.1
	c5.6-4,8.9-10.4,8.9-17.2V7.7C44.3,7,44,6.3,43.4,5.8z M39.6,25.2c0,5.3-2.6,10.3-6.9,13.4l-7.2,5.1l-7.2-5.1
	c-4.3-3.1-6.9-8.1-6.9-13.4V10.4c4.9,0.4,9.9-0.7,14.1-3.3c4.2,2.5,9.2,3.7,14.1,3.3V25.2z"/>
</svg>
